<svg xmlns="http://www.w3.org/2000/svg" xmlns:xlink="http://www.w3.org/1999/xlink" xmlns:serif="http://www.serif.com/" viewBox="0 0 8 8" version="1.1" xml:space="preserve" style="" x="0px" y="0px" fill-rule="evenodd" clip-rule="evenodd" stroke-linejoin="round" stroke-miterlimit="1.41421"><path d="M3.118,5.281c0,0.729 -0.591,1.319 -1.319,1.319c-0.728,0 -1.319,-0.591 -1.319,-1.319c0,-0.728 0.59,-1.319 1.319,-1.319l0,0.33c-0.546,0 -0.989,0.443 -0.989,0.989c0,0.546 0.443,0.989 0.989,0.989c0.546,0 0.989,-0.443 0.989,-0.989l0.33,0Zm4.082,0c0,0.729 -0.59,1.319 -1.319,1.319c-0.728,0 -1.319,-0.591 -1.319,-1.319c0,-0.728 0.591,-1.319 1.319,-1.319l0,0.33c-0.546,0 -0.989,0.443 -0.989,0.989c0,0.546 0.443,0.989 0.989,0.989c0.546,0 0.989,-0.443 0.989,-0.989l0.33,0Zm-5.167,-1.741c-0.015,-0.019 -0.029,-0.039 -0.041,-0.06c-0.143,-0.248 -0.058,-0.564 0.189,-0.707l1.603,-0.925c0.247,-0.143 0.564,-0.058 0.707,0.189c0.074,0.128 0.087,0.275 0.047,0.407l0.46,0.796l0.642,0c0.132,0 0.24,0.108 0.24,0.24c0,0.132 -0.108,0.24 -0.24,0.24l-0.784,0c-0.069,0 -0.132,-0.029 -0.175,-0.077c-0.014,-0.014 -0.027,-0.03 -0.037,-0.048l-0.454,-0.787l-1.189,0.686l1.483,0.599c0.123,0.049 0.182,0.189 0.132,0.312c0,0.001 0,0.002 -0.001,0.003c-0.005,0.015 -0.011,0.029 -0.02,0.043l-0.774,1.311c-0.067,0.114 -0.214,0.152 -0.328,0.085c-0.114,-0.068 -0.152,-0.215 -0.085,-0.329l0.64,-1.084l-1.76,-0.71c-0.104,-0.028 -0.194,-0.094 -0.255,-0.184Zm2.767,-2.46c0.265,0 0.48,0.215 0.48,0.48c0,0.265 -0.215,0.48 -0.48,0.48c-0.265,0 -0.48,-0.215 -0.48,-0.48c0,-0.265 0.215,-0.48 0.48,-0.48Z"/>
</svg>